<?xml version="1.0" encoding="UTF-8" standalone="no"?>
<!-- Created with Inkscape (http://www.inkscape.org/) -->
<svg
   xmlns:dc="http://purl.org/dc/elements/1.1/"
   xmlns:cc="http://web.resource.org/cc/"
   xmlns:rdf="http://www.w3.org/1999/02/22-rdf-syntax-ns#"
   xmlns:svg="http://www.w3.org/2000/svg"
   xmlns="http://www.w3.org/2000/svg"
   xmlns:sodipodi="http://sodipodi.sourceforge.net/DTD/sodipodi-0.dtd"
   xmlns:inkscape="http://www.inkscape.org/namespaces/inkscape"
   id="svg2302"
   sodipodi:version="0.32"
   inkscape:version="0.45.1"
   width="48"
   height="48"
   version="1.0"
   sodipodi:docbase="C:\Documents and Settings\beilharz\My Documents\Visual Studio 2005\Projects\LibronixSantaFeTranslator\LibronixSantaFeTranslator"
   sodipodi:docname="LiSaFT.svg"
   inkscape:export-filename="C:\Documents and Settings\beilharz\My Documents\libronix.bmp.png"
   inkscape:export-xdpi="60"
   inkscape:export-ydpi="60"
   inkscape:output_extension="org.inkscape.output.svg.inkscape">
  <metadata
     id="metadata2307">
    <rdf:RDF>
      <cc:Work
         rdf:about="">
        <dc:format>image/svg+xml</dc:format>
        <dc:type
           rdf:resource="http://purl.org/dc/dcmitype/StillImage" />
      </cc:Work>
    </rdf:RDF>
  </metadata>
  <defs
     id="defs2305" />
  <sodipodi:namedview
     inkscape:window-height="573"
     inkscape:window-width="744"
     inkscape:pageshadow="2"
     inkscape:pageopacity="0.0"
     guidetolerance="10.0"
     gridtolerance="10.0"
     objecttolerance="10.0"
     borderopacity="1.0"
     bordercolor="#666666"
     pagecolor="#ffffff"
     id="base"
     inkscape:zoom="7.8541667"
     inkscape:cx="24"
     inkscape:cy="24.825147"
     inkscape:window-x="132"
     inkscape:window-y="174"
     inkscape:current-layer="svg2302" />
  <g
     id="g5258">
    <rect
       y="2.6737401"
       x="2.9283819"
       height="44.307693"
       width="44.18037"
       id="rect4287"
       style="fill:#ffffff;fill-opacity:1;stroke:#fff9ff;stroke-width:1;stroke-linecap:round;stroke-miterlimit:4;stroke-dasharray:none;stroke-opacity:1" />
    <path
       id="path2311"
       d="M 1.2847036,46.824049 C 0.016542637,45.555888 0.51954564,2.9892074 1.8180366,1.6907162 C 3.6176286,-0.1088755 46.48897,-0.0092012751 47.181762,1.7961851 C 47.457288,2.514193 47.555664,8.5167253 47.400377,15.135146 L 47.118037,27.168637 L 34.903404,21.67788 C 25.765166,17.570033 22.365036,16.462054 21.403404,17.278721 C 20.696452,17.8791 17.193037,24.910693 13.618037,32.904483 C 7.6924766,46.154186 6.8897346,47.440947 4.5347036,47.464681 C 3.1138706,47.479 1.6513706,47.190716 1.2847036,46.824049 z M 9.1773446,30.394755 C 10.234118,28.684858 6.8998346,25.808919 5.4923976,27.216356 C 4.8654386,27.843315 4.6231006,29.061529 4.9538696,29.923499 C 5.6459556,31.727045 8.1792466,32.00971 9.1773446,30.394755 z M 8.1180366,19.921078 C 8.1180366,18.874443 7.3291766,17.866185 6.3650126,17.680504 C 4.1497586,17.253885 2.8315386,20.379428 4.7223196,21.575385 C 6.7038766,22.82876 8.1180366,22.139817 8.1180366,19.921078 z M 43.062264,18.580958 C 43.910076,17.20917 42.586022,14.490716 41.070065,14.490716 C 39.313251,14.490716 38.301423,16.223249 38.998039,18.038603 C 39.61721,19.652137 42.188199,19.995226 43.062264,18.580958 z M 12.618037,12.113161 C 12.618037,10.065566 10.268013,8.470975 8.6887816,9.4469938 C 7.9395826,9.9100242 7.6030526,11.009283 7.9409346,11.889791 C 8.6912496,13.84508 12.618037,14.032616 12.618037,12.113161 z M 38.177344,10.394755 C 39.234118,8.6848585 35.899834,5.8089189 34.492397,7.2163559 C 33.865438,7.8433149 33.623101,9.0615292 33.95387,9.9234992 C 34.645955,11.727045 37.179247,12.00971 38.177344,10.394755 z M 20.177344,7.3947549 C 21.234118,5.6848585 17.899834,2.8089189 16.492397,4.2163559 C 15.865438,4.8433149 15.623101,6.0615292 15.95387,6.9234988 C 16.645955,8.7270453 19.179247,9.0097105 20.177344,7.3947549 z M 29.618037,6.1131609 C 29.618037,4.0655663 27.268013,2.470975 25.688781,3.4469938 C 24.939583,3.9100239 24.603052,5.0092828 24.940935,5.8897914 C 25.69125,7.8450806 29.618037,8.0326164 29.618037,6.1131609 z M 14.099763,39.961374 C 16.031222,35.723066 18.817532,29.567976 20.291564,26.283396 C 22.725758,20.859291 23.207683,20.359762 25.544829,20.838248 C 30.449715,21.842429 47.618037,30.484936 47.618037,31.949867 C 47.618037,32.987163 44.609311,31.988808 36.93335,28.404476 C 31.056773,25.660375 25.609743,23.544693 24.828839,23.702959 C 24.047936,23.861225 21.080057,29.132712 18.233553,35.417374 C 15.38705,41.702035 12.502325,47.029287 11.823055,47.25571 C 11.143785,47.482133 12.168304,44.199682 14.099763,39.961374 z M 16.618037,47.129141 C 16.618037,46.390525 24.915337,28.947585 25.798701,27.829154 C 26.929666,26.397236 47.55041,35.302619 47.591522,37.240716 C 47.631183,39.110467 46.66099,38.849724 37.35911,34.490716 C 32.664432,32.290716 28.29795,30.490716 27.655817,30.490716 C 27.013683,30.490716 24.695845,34.315716 22.505067,38.990716 C 20.314288,43.665716 18.093478,47.490716 17.569935,47.490716 C 17.046391,47.490716 16.618037,47.328007 16.618037,47.129141 z M 24.792924,41.740716 C 26.368985,38.578216 28.236572,35.598411 28.943116,35.118927 C 30.562769,34.019777 47.618037,41.425587 47.618037,43.22803 C 47.618037,44.927578 47.781943,44.970631 38.978213,40.958642 C 34.715369,39.016001 30.641683,37.6514 29.925579,37.926196 C 29.209474,38.200991 27.632656,40.465424 26.421538,42.958269 C 25.21042,45.451115 23.703772,47.490716 23.073432,47.490716 C 22.411362,47.490716 23.137528,45.062408 24.792924,41.740716 z "
       style="fill:#ff0000;fill-opacity:1" />
    <path
       d="M 11.617616,11.92613 C 12.396214,11.948887 13.162166,12.312918 13.929024,12.601025 C 16.327655,13.359902 18.739168,13.851463 21.149146,14.346929 C 23.863254,14.916901 26.582766,15.32936 29.30565,15.548314 C 30.434235,15.634015 31.563236,15.627659 32.691987,15.578862 C 32.957799,15.559802 33.223682,15.549707 33.489556,15.538133 L 32.013681,18.11777 C 31.760672,18.112608 31.507584,18.113682 31.254793,18.082175 C 30.201883,17.958649 29.149715,17.801868 28.097837,17.635031 C 25.414422,17.21211 22.732844,16.725208 20.051587,16.230549 C 17.575944,15.776251 15.09836,15.372063 12.626238,14.814968 C 11.794162,14.612657 10.960303,14.362716 10.123004,14.535227 L 11.617616,11.92613 z "
       id="path3298"
       style="fill:#ffff00;fill-opacity:1;stroke:#fff900;stroke-width:1.5165416;stroke-linecap:round;stroke-miterlimit:4;stroke-dasharray:none;stroke-opacity:1" />
    <path
       d="M 29.084386,10.811033 C 29.460776,11.125222 29.838229,11.437836 30.215839,11.75041 C 30.740083,12.214859 31.303386,12.621991 31.87542,13.015066 C 32.212227,13.22967 32.536354,13.468676 32.857225,13.707121 C 33.099129,13.7977 33.304961,13.958063 33.517127,14.105022 C 33.750361,14.278697 34.026361,14.368818 34.291525,14.473078 C 34.617104,14.617804 34.899979,14.837738 35.183738,15.053678 C 35.386786,15.238883 35.491746,15.501641 35.616812,15.743697 C 35.73934,15.853532 35.901398,15.894735 36.041454,15.969066 L 34.335535,17.183947 C 34.166225,17.082889 33.972284,17.018857 33.84709,16.849237 C 33.733745,16.620734 33.643065,16.373552 33.450279,16.204483 C 33.182731,15.99911 32.919597,15.784635 32.600143,15.673868 C 32.318859,15.564739 32.032976,15.471085 31.795854,15.267317 C 31.576922,15.13787 31.36048,15.001441 31.136265,14.880767 C 30.834069,14.628002 30.531753,14.371968 30.205421,14.153883 C 29.641918,13.739963 29.08525,13.315672 28.540057,12.874653 C 28.147337,12.566524 27.7601,12.246937 27.340217,11.980875 L 29.084386,10.811033 z "
       id="path3300"
       style="fill:#ffff00;fill-opacity:1;stroke:#fff900;stroke-width:1.12869024;stroke-linecap:round;stroke-miterlimit:4;stroke-dasharray:none;stroke-opacity:1" />
    <path
       d="M 36.088545,27.33054 C 35.61212,27.261964 35.135168,27.285237 34.658595,27.296613 C 33.576496,27.469667 32.508973,27.974144 31.435002,28.329269 C 30.396301,28.640622 29.351168,28.752642 28.306403,28.81765 C 27.401738,28.846491 26.496939,28.834606 25.592222,28.830221 C 24.729108,28.829437 23.865993,28.827746 23.002893,28.842231 C 22.353984,28.848683 21.705092,28.862555 21.05619,28.872004 C 20.504527,28.870235 19.952876,28.869505 19.40122,28.876126 C 18.945942,28.881916 18.490664,28.884412 18.035394,28.893169 C 17.610433,28.894011 17.185474,28.887329 16.760516,28.883542 C 16.339558,28.881834 15.918597,28.89003 15.497649,28.897722 C 15.166821,28.904054 14.835977,28.901571 14.50514,28.901664 C 14.15781,28.894688 13.810485,28.89892 13.463154,28.902478 C 13.175019,28.911025 12.886893,28.907875 12.598757,28.906089 C 12.28779,28.897321 11.976797,28.904275 11.665825,28.907762 C 11.447256,28.910556 11.228683,28.910945 11.010111,28.911929 L 12.486823,26.166278 C 12.703901,26.16726 12.92098,26.167638 13.138057,26.170442 C 13.448428,26.173968 13.758821,26.180868 14.069188,26.172116 C 14.35603,26.170349 14.642861,26.167097 14.929701,26.175727 C 15.27674,26.179322 15.623773,26.183474 15.970812,26.176541 C 16.300233,26.176634 16.629664,26.174123 16.959079,26.180485 C 17.374948,26.18627 17.790815,26.19797 18.206693,26.194665 C 18.635104,26.190881 19.063515,26.184226 19.491929,26.185035 C 19.941092,26.193858 20.390262,26.196258 20.839432,26.202051 C 21.38963,26.208709 21.939825,26.207812 22.49003,26.206066 C 23.128058,26.21557 23.766074,26.229519 24.404105,26.237206 C 25.260765,26.253879 26.117448,26.255325 26.974125,26.261572 C 27.879003,26.263371 28.783915,26.269026 29.688739,26.236763 C 30.717046,26.196822 31.746445,26.109656 32.767987,25.783013 C 33.865922,25.417507 34.956427,24.897344 36.060724,24.667634 C 36.566991,24.604947 37.073576,24.603879 37.580051,24.557383 L 36.088545,27.33054 z "
       id="path3302"
       style="fill:#ffff00;fill-opacity:1;stroke:#fff900;stroke-width:1.56633484;stroke-linecap:round;stroke-miterlimit:4;stroke-dasharray:none;stroke-opacity:1" />
    <path
       d="M 8.6774847,26.254231 C 8.953441,26.448935 9.1716844,26.684779 9.4086563,26.909697 C 9.7045262,27.21186 9.9787284,27.52619 10.251607,27.842392 C 10.647553,28.296458 11.151145,28.670284 11.633596,29.057586 C 12.17452,29.516407 12.780532,29.916827 13.36825,30.332478 C 13.921757,30.758652 14.487933,31.169849 15.072917,31.5656 C 15.697499,31.958543 16.296859,32.376977 16.88963,32.802138 C 17.460718,33.241333 18.027254,33.684558 18.594503,34.127243 C 18.840362,34.317443 19.105411,34.489186 19.36662,34.664272 L 17.239332,35.767619 C 16.989647,35.583058 16.739509,35.398821 16.495106,35.209368 C 15.929485,34.766782 15.35894,34.328663 14.787944,33.890857 C 14.198782,33.468324 13.604781,33.049427 12.985636,32.657603 C 12.390965,32.266484 11.823618,31.853618 11.271267,31.421112 C 10.681305,31.003411 10.072432,30.602297 9.5303369,30.140338 C 9.0295611,29.7435 8.5044754,29.362047 8.0767255,28.907263 C 7.8045477,28.595457 7.5302431,28.286275 7.233707,27.989924 C 7.003677,27.785878 6.7967205,27.562566 6.5030205,27.414279 L 8.6774847,26.254231 z "
       id="path3308"
       style="fill:#ffff00;fill-opacity:1;stroke:#fff900;stroke-width:1.24674058;stroke-linecap:round;stroke-miterlimit:4;stroke-dasharray:none;stroke-opacity:1" />
    <path
       d="M 8.1447732,26.356727 C 8.375121,26.14752 8.6412219,25.992978 8.8982051,25.821019 C 9.2409423,25.609167 9.593742,25.417401 9.9483126,25.227013 C 10.457932,24.950129 10.897271,24.570813 11.348072,24.211309 C 11.878708,23.811512 12.356717,23.348462 12.848304,22.903031 C 13.346871,22.488157 13.831493,22.060491 14.302372,21.614737 C 14.774784,21.134866 15.270519,20.679885 15.772419,20.231417 C 16.286294,19.803297 16.803793,19.379593 17.320817,18.95521 C 17.543196,18.771051 17.748788,18.568076 17.95738,18.36882 L 18.851732,20.328741 C 18.63471,20.516914 18.417969,20.705516 18.196519,20.888534 C 17.679776,21.311543 17.167066,21.739343 16.654626,22.167571 C 16.155822,22.613313 15.660208,23.063666 15.189549,23.539053 C 14.722341,23.99368 14.235876,24.42212 13.730947,24.835166 C 13.237009,25.282234 12.75797,25.74763 12.223985,26.148009 C 11.761367,26.521856 11.311815,26.918472 10.797918,27.222362 C 10.447932,27.41274 10.1004,27.605278 9.7635475,27.818474 C 9.5287356,27.987299 9.2767401,28.133894 9.0920067,28.364409 L 8.1447732,26.356727 z "
       id="path4281"
       style="fill:#ffff00;fill-opacity:1;stroke:#fff900;stroke-width:1.17521119;stroke-linecap:round;stroke-miterlimit:4;stroke-dasharray:none;stroke-opacity:1" />
    <path
       d="M 34.232694,17.296435 C 33.779722,17.634243 33.328022,17.973853 32.876311,18.313663 C 32.217603,18.774912 31.605023,19.30223 31.004045,19.844747 C 30.66763,20.169983 30.31024,20.471768 29.954534,20.769889 C 29.778738,21.025403 29.54289,21.214086 29.318777,21.414902 C 29.059857,21.631477 28.872979,21.927567 28.675131,22.205934 C 28.414896,22.541963 28.091239,22.801427 27.771418,23.063317 C 27.510784,23.240131 27.203069,23.27392 26.909984,23.338684 C 26.754698,23.446045 26.657102,23.623941 26.53265,23.764327 L 25.852507,21.323045 C 26.014554,21.157199 26.1466,20.949386 26.364707,20.859484 C 26.639785,20.80394 26.926528,20.781708 27.166971,20.61149 C 27.470353,20.365173 27.781666,20.127229 28.004653,19.786747 C 28.213007,19.49095 28.406893,19.184363 28.698302,18.973559 C 28.906568,18.758683 29.121222,18.549165 29.322193,18.325001 C 29.686403,18.053958 30.054038,17.7839 30.390508,17.472283 C 31.010185,16.94707 31.638288,16.433533 32.279826,15.939372 C 32.732056,15.580117 33.194293,15.231313 33.612159,14.825349 L 34.232694,17.296435 z "
       id="path4285"
       style="fill:#ffff00;fill-opacity:1;stroke:#fff900;stroke-width:1.30882537;stroke-linecap:round;stroke-miterlimit:4;stroke-dasharray:none;stroke-opacity:1" />
  </g>
</svg>
